<mxfile host="app.diagrams.net" modified="2023-03-01T14:02:09.640Z" agent="5.0 (Windows NT 10.0; Win64; x64) AppleWebKit/537.36 (KHTML, like Gecko) Chrome/109.0.0.0 Safari/537.36 OPR/95.0.0.0 (Edition std-1)" etag="kQzkU5D5tWc86EuC309_" version="20.8.23" type="github">
  <diagram id="C5RBs43oDa-KdzZeNtuy" name="Page-1">
    <mxGraphModel dx="1393" dy="797" grid="1" gridSize="10" guides="1" tooltips="1" connect="1" arrows="1" fold="1" page="1" pageScale="1" pageWidth="827" pageHeight="1169" math="0" shadow="0">
      <root>
        <mxCell id="WIyWlLk6GJQsqaUBKTNV-0" />
        <mxCell id="WIyWlLk6GJQsqaUBKTNV-1" parent="WIyWlLk6GJQsqaUBKTNV-0" />
        <mxCell id="UAfo5JNhk7zYVLQADAWf-15" value="" style="edgeStyle=orthogonalEdgeStyle;rounded=0;orthogonalLoop=1;jettySize=auto;html=1;fontSize=18;" edge="1" parent="WIyWlLk6GJQsqaUBKTNV-1" source="UAfo5JNhk7zYVLQADAWf-0" target="UAfo5JNhk7zYVLQADAWf-13">
          <mxGeometry relative="1" as="geometry" />
        </mxCell>
        <mxCell id="UAfo5JNhk7zYVLQADAWf-0" value="start" style="ellipse;whiteSpace=wrap;html=1;fontSize=18;" vertex="1" parent="WIyWlLk6GJQsqaUBKTNV-1">
          <mxGeometry x="340" y="50" width="120" height="80" as="geometry" />
        </mxCell>
        <mxCell id="UAfo5JNhk7zYVLQADAWf-1" value="stop" style="ellipse;whiteSpace=wrap;html=1;fontSize=18;" vertex="1" parent="WIyWlLk6GJQsqaUBKTNV-1">
          <mxGeometry x="340" y="610" width="120" height="80" as="geometry" />
        </mxCell>
        <mxCell id="UAfo5JNhk7zYVLQADAWf-5" style="edgeStyle=orthogonalEdgeStyle;rounded=0;orthogonalLoop=1;jettySize=auto;html=1;exitX=1;exitY=0.5;exitDx=0;exitDy=0;entryX=0;entryY=0.5;entryDx=0;entryDy=0;fontSize=18;" edge="1" parent="WIyWlLk6GJQsqaUBKTNV-1" source="UAfo5JNhk7zYVLQADAWf-2" target="UAfo5JNhk7zYVLQADAWf-4">
          <mxGeometry relative="1" as="geometry" />
        </mxCell>
        <mxCell id="UAfo5JNhk7zYVLQADAWf-8" style="edgeStyle=orthogonalEdgeStyle;rounded=0;orthogonalLoop=1;jettySize=auto;html=1;exitX=0;exitY=0.5;exitDx=0;exitDy=0;fontSize=18;" edge="1" parent="WIyWlLk6GJQsqaUBKTNV-1" source="UAfo5JNhk7zYVLQADAWf-2" target="UAfo5JNhk7zYVLQADAWf-7">
          <mxGeometry relative="1" as="geometry" />
        </mxCell>
        <mxCell id="UAfo5JNhk7zYVLQADAWf-19" value="" style="edgeStyle=orthogonalEdgeStyle;rounded=0;orthogonalLoop=1;jettySize=auto;html=1;fontSize=18;" edge="1" parent="WIyWlLk6GJQsqaUBKTNV-1" source="UAfo5JNhk7zYVLQADAWf-2">
          <mxGeometry relative="1" as="geometry">
            <mxPoint x="400" y="450" as="targetPoint" />
          </mxGeometry>
        </mxCell>
        <mxCell id="UAfo5JNhk7zYVLQADAWf-2" value="a&amp;lt;0" style="rhombus;whiteSpace=wrap;html=1;fontSize=18;" vertex="1" parent="WIyWlLk6GJQsqaUBKTNV-1">
          <mxGeometry x="360" y="300" width="80" height="100" as="geometry" />
        </mxCell>
        <mxCell id="UAfo5JNhk7zYVLQADAWf-17" style="edgeStyle=orthogonalEdgeStyle;rounded=0;orthogonalLoop=1;jettySize=auto;html=1;exitX=0.5;exitY=1;exitDx=0;exitDy=0;entryX=1;entryY=0.5;entryDx=0;entryDy=0;fontSize=18;" edge="1" parent="WIyWlLk6GJQsqaUBKTNV-1" source="UAfo5JNhk7zYVLQADAWf-4" target="UAfo5JNhk7zYVLQADAWf-1">
          <mxGeometry relative="1" as="geometry" />
        </mxCell>
        <mxCell id="UAfo5JNhk7zYVLQADAWf-4" value="a*(-1)" style="rounded=0;whiteSpace=wrap;html=1;fontSize=18;" vertex="1" parent="WIyWlLk6GJQsqaUBKTNV-1">
          <mxGeometry x="500" y="310" width="120" height="60" as="geometry" />
        </mxCell>
        <mxCell id="UAfo5JNhk7zYVLQADAWf-6" value="Tak" style="text;html=1;align=center;verticalAlign=middle;resizable=0;points=[];autosize=1;strokeColor=none;fillColor=none;fontSize=18;" vertex="1" parent="WIyWlLk6GJQsqaUBKTNV-1">
          <mxGeometry x="445" y="310" width="50" height="40" as="geometry" />
        </mxCell>
        <mxCell id="UAfo5JNhk7zYVLQADAWf-11" style="edgeStyle=orthogonalEdgeStyle;rounded=0;orthogonalLoop=1;jettySize=auto;html=1;exitX=0.5;exitY=1;exitDx=0;exitDy=0;entryX=0;entryY=0.5;entryDx=0;entryDy=0;fontSize=18;" edge="1" parent="WIyWlLk6GJQsqaUBKTNV-1" source="UAfo5JNhk7zYVLQADAWf-7" target="UAfo5JNhk7zYVLQADAWf-1">
          <mxGeometry relative="1" as="geometry" />
        </mxCell>
        <mxCell id="UAfo5JNhk7zYVLQADAWf-7" value="a" style="rounded=0;whiteSpace=wrap;html=1;fontSize=18;" vertex="1" parent="WIyWlLk6GJQsqaUBKTNV-1">
          <mxGeometry x="180" y="310" width="120" height="60" as="geometry" />
        </mxCell>
        <mxCell id="UAfo5JNhk7zYVLQADAWf-9" value="Nie" style="text;html=1;align=center;verticalAlign=middle;resizable=0;points=[];autosize=1;strokeColor=none;fillColor=none;fontSize=18;" vertex="1" parent="WIyWlLk6GJQsqaUBKTNV-1">
          <mxGeometry x="310" y="310" width="50" height="40" as="geometry" />
        </mxCell>
        <mxCell id="UAfo5JNhk7zYVLQADAWf-16" value="" style="edgeStyle=orthogonalEdgeStyle;rounded=0;orthogonalLoop=1;jettySize=auto;html=1;fontSize=18;" edge="1" parent="WIyWlLk6GJQsqaUBKTNV-1" source="UAfo5JNhk7zYVLQADAWf-13" target="UAfo5JNhk7zYVLQADAWf-2">
          <mxGeometry relative="1" as="geometry" />
        </mxCell>
        <mxCell id="UAfo5JNhk7zYVLQADAWf-13" value="pobierz a" style="rounded=0;whiteSpace=wrap;html=1;fontSize=18;" vertex="1" parent="WIyWlLk6GJQsqaUBKTNV-1">
          <mxGeometry x="340" y="170" width="120" height="60" as="geometry" />
        </mxCell>
        <mxCell id="UAfo5JNhk7zYVLQADAWf-20" value="" style="edgeStyle=orthogonalEdgeStyle;rounded=0;orthogonalLoop=1;jettySize=auto;html=1;fontSize=18;" edge="1" parent="WIyWlLk6GJQsqaUBKTNV-1" target="UAfo5JNhk7zYVLQADAWf-1">
          <mxGeometry relative="1" as="geometry">
            <mxPoint x="400" y="510" as="sourcePoint" />
          </mxGeometry>
        </mxCell>
      </root>
    </mxGraphModel>
  </diagram>
</mxfile>
